<svg width="23" height="23" viewBox="0 0 23 23" fill="none" xmlns="http://www.w3.org/2000/svg">
<path fill-rule="evenodd" clip-rule="evenodd" d="M11.4499 0C5.12383 0 0 5.12383 0 11.4499C0 16.5165 3.27753 20.7959 7.82886 22.313C8.40136 22.4132 8.61604 22.0697 8.61604 21.7691C8.61604 21.4972 8.60173 20.5955 8.60173 19.6366C5.72495 20.1661 4.9807 18.9353 4.75171 18.2912C4.62289 17.962 4.06471 16.9458 3.57809 16.6739C3.17735 16.4592 2.60485 15.9297 3.56378 15.9154C4.46546 15.901 5.10952 16.7455 5.3242 17.089C6.35469 18.8208 8.00061 18.3341 8.65898 18.0336C8.75917 17.2893 9.05973 16.7884 9.38891 16.5022C6.84131 16.2159 4.17921 15.2284 4.17921 10.8488C4.17921 9.6036 4.62289 8.57311 5.35283 7.77162C5.23833 7.48537 4.83758 6.31175 5.46732 4.73739C5.46732 4.73739 6.42625 4.43683 8.61604 5.91101C9.53204 5.65339 10.5053 5.52457 11.4785 5.52457C12.4518 5.52457 13.425 5.65339 14.341 5.91101C16.5308 4.42252 17.4897 4.73739 17.4897 4.73739C18.1195 6.31175 17.7187 7.48537 17.6042 7.77162C18.3341 8.57311 18.7778 9.58929 18.7778 10.8488C18.7778 15.2427 16.1014 16.2159 13.5538 16.5022C13.9689 16.86 14.3267 17.547 14.3267 18.6204C14.3267 20.1518 14.3124 21.3827 14.3124 21.7691C14.3124 22.0697 14.5271 22.4275 15.0995 22.313C17.3726 21.5456 19.3477 20.0848 20.747 18.1361C22.1462 16.1874 22.8992 13.8489 22.8998 11.4499C22.8998 5.12383 17.776 0 11.4499 0Z" fill="white"/>
</svg>
