<svg width="320" height="56" viewBox="0 0 320 56" fill="none" xmlns="http://www.w3.org/2000/svg">
<rect x="1" y="1" width="318" height="54" rx="4" stroke="#055686" stroke-width="2"/>
<path d="M67.019 27.7104V34.7539C66.7424 35.0876 66.3151 35.4497 65.7373 35.8403C65.1595 36.2228 64.4149 36.5524 63.5034 36.8291C62.592 37.1058 61.4893 37.2441 60.1953 37.2441C59.0479 37.2441 58.0021 37.057 57.0581 36.6826C56.1141 36.3001 55.3003 35.7427 54.6167 35.0103C53.9412 34.2778 53.4204 33.3826 53.0542 32.3247C52.688 31.2586 52.5049 30.042 52.5049 28.6748V27.564C52.5049 26.1968 52.6799 24.9801 53.0298 23.9141C53.3879 22.848 53.8965 21.9487 54.5557 21.2163C55.2148 20.4839 56.0002 19.9264 56.9116 19.5439C57.8231 19.1615 58.8363 18.9702 59.9512 18.9702C61.4974 18.9702 62.7669 19.2225 63.7598 19.7271C64.7526 20.2235 65.5094 20.9152 66.0303 21.8022C66.5592 22.6812 66.8848 23.6903 67.0068 24.8296H63.4546C63.3651 24.2274 63.1942 23.7025 62.9419 23.2549C62.6896 22.8073 62.3275 22.4574 61.8555 22.2051C61.3916 21.9528 60.7894 21.8267 60.0488 21.8267C59.4385 21.8267 58.8932 21.9528 58.4131 22.2051C57.9411 22.4492 57.5423 22.8114 57.2168 23.2915C56.8913 23.7716 56.6431 24.3657 56.4722 25.0737C56.3013 25.7817 56.2158 26.6037 56.2158 27.5396V28.6748C56.2158 29.6025 56.3053 30.4245 56.4844 31.1406C56.6634 31.8486 56.9279 32.4468 57.2778 32.9351C57.6359 33.4152 58.0754 33.7773 58.5962 34.0215C59.117 34.2656 59.7233 34.3877 60.415 34.3877C60.9928 34.3877 61.473 34.3389 61.8555 34.2412C62.2461 34.1436 62.5594 34.0256 62.7954 33.8872C63.0396 33.7407 63.2267 33.6024 63.3569 33.4722V30.3228H60.0122V27.7104H67.019ZM84.5728 27.6982V28.5405C84.5728 29.8914 84.3896 31.104 84.0234 32.1782C83.6572 33.2524 83.1405 34.168 82.4731 34.9248C81.8058 35.6735 81.0083 36.2472 80.0806 36.646C79.161 37.0448 78.1396 37.2441 77.0166 37.2441C75.9017 37.2441 74.8804 37.0448 73.9526 36.646C73.033 36.2472 72.2355 35.6735 71.5601 34.9248C70.8846 34.168 70.3597 33.2524 69.9854 32.1782C69.6191 31.104 69.436 29.8914 69.436 28.5405V27.6982C69.436 26.3392 69.6191 25.1266 69.9854 24.0605C70.3516 22.9863 70.8683 22.0708 71.5356 21.314C72.2111 20.5571 73.0086 19.9793 73.9282 19.5806C74.856 19.1818 75.8773 18.9824 76.9922 18.9824C78.1152 18.9824 79.1366 19.1818 80.0562 19.5806C80.9839 19.9793 81.7814 20.5571 82.4487 21.314C83.1242 22.0708 83.645 22.9863 84.0112 24.0605C84.3856 25.1266 84.5728 26.3392 84.5728 27.6982ZM80.874 28.5405V27.6738C80.874 26.7298 80.7886 25.8997 80.6177 25.1836C80.4468 24.4674 80.1945 23.8652 79.8608 23.377C79.5272 22.8887 79.1203 22.5225 78.6401 22.2783C78.16 22.026 77.6107 21.8999 76.9922 21.8999C76.3737 21.8999 75.8244 22.026 75.3442 22.2783C74.8722 22.5225 74.4694 22.8887 74.1357 23.377C73.8102 23.8652 73.562 24.4674 73.3911 25.1836C73.2202 25.8997 73.1348 26.7298 73.1348 27.6738V28.5405C73.1348 29.4764 73.2202 30.3065 73.3911 31.0308C73.562 31.7469 73.8143 32.3532 74.1479 32.8496C74.4816 33.3379 74.8885 33.7082 75.3687 33.9604C75.8488 34.2127 76.3981 34.3389 77.0166 34.3389C77.6351 34.3389 78.1844 34.2127 78.6646 33.9604C79.1447 33.7082 79.5475 33.3379 79.873 32.8496C80.1986 32.3532 80.4468 31.7469 80.6177 31.0308C80.7886 30.3065 80.874 29.4764 80.874 28.5405ZM100.723 19.2266V37H97.0728V19.2266H100.723ZM106.191 19.2266V22.0952H91.6895V19.2266H106.191ZM122.537 27.6982V28.5405C122.537 29.8914 122.354 31.104 121.987 32.1782C121.621 33.2524 121.104 34.168 120.437 34.9248C119.77 35.6735 118.972 36.2472 118.044 36.646C117.125 37.0448 116.104 37.2441 114.98 37.2441C113.866 37.2441 112.844 37.0448 111.917 36.646C110.997 36.2472 110.199 35.6735 109.524 34.9248C108.848 34.168 108.324 33.2524 107.949 32.1782C107.583 31.104 107.4 29.8914 107.4 28.5405V27.6982C107.4 26.3392 107.583 25.1266 107.949 24.0605C108.315 22.9863 108.832 22.0708 109.5 21.314C110.175 20.5571 110.972 19.9793 111.892 19.5806C112.82 19.1818 113.841 18.9824 114.956 18.9824C116.079 18.9824 117.1 19.1818 118.02 19.5806C118.948 19.9793 119.745 20.5571 120.413 21.314C121.088 22.0708 121.609 22.9863 121.975 24.0605C122.349 25.1266 122.537 26.3392 122.537 27.6982ZM118.838 28.5405V27.6738C118.838 26.7298 118.752 25.8997 118.582 25.1836C118.411 24.4674 118.158 23.8652 117.825 23.377C117.491 22.8887 117.084 22.5225 116.604 22.2783C116.124 22.026 115.575 21.8999 114.956 21.8999C114.338 21.8999 113.788 22.026 113.308 22.2783C112.836 22.5225 112.433 22.8887 112.1 23.377C111.774 23.8652 111.526 24.4674 111.355 25.1836C111.184 25.8997 111.099 26.7298 111.099 27.6738V28.5405C111.099 29.4764 111.184 30.3065 111.355 31.0308C111.526 31.7469 111.778 32.3532 112.112 32.8496C112.445 33.3379 112.852 33.7082 113.333 33.9604C113.813 34.2127 114.362 34.3389 114.98 34.3389C115.599 34.3389 116.148 34.2127 116.628 33.9604C117.109 33.7082 117.511 33.3379 117.837 32.8496C118.162 32.3532 118.411 31.7469 118.582 31.0308C118.752 30.3065 118.838 29.4764 118.838 28.5405ZM143.252 26.4653V29.3218H133.975V26.4653H143.252ZM135.061 19.2266V37H131.399V19.2266H135.061ZM145.864 19.2266V37H142.214V19.2266H145.864ZM163.65 27.6982V28.5405C163.65 29.8914 163.467 31.104 163.101 32.1782C162.734 33.2524 162.218 34.168 161.55 34.9248C160.883 35.6735 160.085 36.2472 159.158 36.646C158.238 37.0448 157.217 37.2441 156.094 37.2441C154.979 37.2441 153.958 37.0448 153.03 36.646C152.11 36.2472 151.313 35.6735 150.637 34.9248C149.962 34.168 149.437 33.2524 149.062 32.1782C148.696 31.104 148.513 29.8914 148.513 28.5405V27.6982C148.513 26.3392 148.696 25.1266 149.062 24.0605C149.429 22.9863 149.945 22.0708 150.613 21.314C151.288 20.5571 152.086 19.9793 153.005 19.5806C153.933 19.1818 154.954 18.9824 156.069 18.9824C157.192 18.9824 158.214 19.1818 159.133 19.5806C160.061 19.9793 160.859 20.5571 161.526 21.314C162.201 22.0708 162.722 22.9863 163.088 24.0605C163.463 25.1266 163.65 26.3392 163.65 27.6982ZM159.951 28.5405V27.6738C159.951 26.7298 159.866 25.8997 159.695 25.1836C159.524 24.4674 159.272 23.8652 158.938 23.377C158.604 22.8887 158.197 22.5225 157.717 22.2783C157.237 22.026 156.688 21.8999 156.069 21.8999C155.451 21.8999 154.902 22.026 154.421 22.2783C153.949 22.5225 153.547 22.8887 153.213 23.377C152.887 23.8652 152.639 24.4674 152.468 25.1836C152.297 25.8997 152.212 26.7298 152.212 27.6738V28.5405C152.212 29.4764 152.297 30.3065 152.468 31.0308C152.639 31.7469 152.891 32.3532 153.225 32.8496C153.559 33.3379 153.966 33.7082 154.446 33.9604C154.926 34.2127 155.475 34.3389 156.094 34.3389C156.712 34.3389 157.262 34.2127 157.742 33.9604C158.222 33.7082 158.625 33.3379 158.95 32.8496C159.276 32.3532 159.524 31.7469 159.695 31.0308C159.866 30.3065 159.951 29.4764 159.951 28.5405ZM167.959 19.2266H171.06L175.625 32.2759L180.19 19.2266H183.291L176.87 37H174.38L167.959 19.2266ZM166.287 19.2266H169.375L169.937 31.9463V37H166.287V19.2266ZM181.875 19.2266H184.976V37H181.313V31.9463L181.875 19.2266ZM200.112 34.1436V37H190.652V34.1436H200.112ZM191.848 19.2266V37H188.186V19.2266H191.848ZM198.879 26.4653V29.2485H190.652V26.4653H198.879ZM200.1 19.2266V22.0952H190.652V19.2266H200.1ZM215.396 30.6646H210.867V27.8081H215.396C216.095 27.8081 216.665 27.6942 217.104 27.4663C217.544 27.2303 217.865 26.9048 218.069 26.4897C218.272 26.0747 218.374 25.6068 218.374 25.0859C218.374 24.557 218.272 24.0646 218.069 23.6089C217.865 23.1532 217.544 22.7869 217.104 22.5103C216.665 22.2336 216.095 22.0952 215.396 22.0952H212.136V37H208.474V19.2266H215.396C216.787 19.2266 217.979 19.4788 218.972 19.9834C219.973 20.4798 220.738 21.1675 221.267 22.0464C221.796 22.9253 222.061 23.9303 222.061 25.0615C222.061 26.209 221.796 27.2018 221.267 28.04C220.738 28.8783 219.973 29.5252 218.972 29.981C217.979 30.4367 216.787 30.6646 215.396 30.6646ZM229.788 22.2661L224.954 37H221.06L227.664 19.2266H230.142L229.788 22.2661ZM233.804 37L228.958 22.2661L228.567 19.2266H231.069L237.71 37H233.804ZM233.584 30.3838V33.2524H224.197V30.3838H233.584ZM253.225 27.7104V34.7539C252.948 35.0876 252.521 35.4497 251.943 35.8403C251.366 36.2228 250.621 36.5524 249.709 36.8291C248.798 37.1058 247.695 37.2441 246.401 37.2441C245.254 37.2441 244.208 37.057 243.264 36.6826C242.32 36.3001 241.506 35.7427 240.823 35.0103C240.147 34.2778 239.626 33.3826 239.26 32.3247C238.894 31.2586 238.711 30.042 238.711 28.6748V27.564C238.711 26.1968 238.886 24.9801 239.236 23.9141C239.594 22.848 240.103 21.9487 240.762 21.2163C241.421 20.4839 242.206 19.9264 243.118 19.5439C244.029 19.1615 245.042 18.9702 246.157 18.9702C247.703 18.9702 248.973 19.2225 249.966 19.7271C250.959 20.2235 251.715 20.9152 252.236 21.8022C252.765 22.6812 253.091 23.6903 253.213 24.8296H249.661C249.571 24.2274 249.4 23.7025 249.148 23.2549C248.896 22.8073 248.534 22.4574 248.062 22.2051C247.598 21.9528 246.995 21.8267 246.255 21.8267C245.645 21.8267 245.099 21.9528 244.619 22.2051C244.147 22.4492 243.748 22.8114 243.423 23.2915C243.097 23.7716 242.849 24.3657 242.678 25.0737C242.507 25.7817 242.422 26.6037 242.422 27.5396V28.6748C242.422 29.6025 242.511 30.4245 242.69 31.1406C242.869 31.8486 243.134 32.4468 243.484 32.9351C243.842 33.4152 244.281 33.7773 244.802 34.0215C245.323 34.2656 245.929 34.3877 246.621 34.3877C247.199 34.3877 247.679 34.3389 248.062 34.2412C248.452 34.1436 248.765 34.0256 249.001 33.8872C249.246 33.7407 249.433 33.6024 249.563 33.4722V30.3228H246.218V27.7104H253.225ZM268.105 34.1436V37H258.645V34.1436H268.105ZM259.841 19.2266V37H256.179V19.2266H259.841ZM266.873 26.4653V29.2485H258.645V26.4653H266.873ZM268.093 19.2266V22.0952H258.645V19.2266H268.093Z" fill="#055686"/>
</svg>
