<svg width="35" height="30" viewBox="0 0 35 30" fill="none" xmlns="http://www.w3.org/2000/svg">
<path d="M21.8748 30H28.4372C29.041 30 29.531 29.58 29.531 29.0625V15.9374H33.9059C34.3483 15.9374 34.747 15.7092 34.9165 15.3585C35.0861 15.0084 34.9926 14.6053 34.6792 14.3371L18.2731 0.274571C17.846 -0.0915238 17.1536 -0.0915238 16.7265 0.274571L0.32043 14.3371C0.00762013 14.6053 -0.0858947 15.0084 0.0830883 15.3585C0.252618 15.7092 0.651287 15.9374 1.0937 15.9374H5.46867V29.0625C5.46867 29.58 5.95866 30 6.56241 30H13.1249C13.7286 30 14.2186 29.58 14.2186 29.0625V22.5H20.781V29.0625C20.781 29.58 21.271 30 21.8748 30ZM13.1249 20.625C12.5211 20.625 12.0311 21.045 12.0311 21.5625V28.125H7.65615V14.9999C7.65615 14.4824 7.16615 14.0624 6.56241 14.0624H3.734L17.4998 2.26349L31.2656 14.0624H28.4372C27.8335 14.0624 27.3435 14.4824 27.3435 14.9999V28.125H22.9685V21.5625C22.9685 21.045 22.4785 20.625 21.8748 20.625H13.1249Z" fill="white"/>
<rect x="13.4773" y="8.93182" width="8.04545" height="6.68182" rx="3.34091" stroke="white" stroke-width="1.5"/>
</svg>
