<svg width="320" height="56" viewBox="0 0 320 56" fill="none" xmlns="http://www.w3.org/2000/svg">
<rect x="1" y="1" width="318" height="54" rx="4" stroke="#055686" stroke-width="2"/>
<path d="M95.7178 27.7104V34.7539C95.4411 35.0876 95.0138 35.4497 94.436 35.8403C93.8582 36.2228 93.1136 36.5524 92.2021 36.8291C91.2907 37.1058 90.188 37.2441 88.894 37.2441C87.7466 37.2441 86.7008 37.057 85.7568 36.6826C84.8128 36.3001 83.999 35.7427 83.3154 35.0103C82.64 34.2778 82.1191 33.3826 81.7529 32.3247C81.3867 31.2586 81.2036 30.042 81.2036 28.6748V27.564C81.2036 26.1968 81.3786 24.9801 81.7285 23.9141C82.0866 22.848 82.5952 21.9487 83.2544 21.2163C83.9136 20.4839 84.6989 19.9264 85.6104 19.5439C86.5218 19.1615 87.535 18.9702 88.6499 18.9702C90.1961 18.9702 91.4657 19.2225 92.4585 19.7271C93.4513 20.2235 94.2082 20.9152 94.729 21.8022C95.258 22.6812 95.5835 23.6903 95.7056 24.8296H92.1533C92.0638 24.2274 91.8929 23.7025 91.6406 23.2549C91.3883 22.8073 91.0262 22.4574 90.5542 22.2051C90.0903 21.9528 89.4881 21.8267 88.7476 21.8267C88.1372 21.8267 87.592 21.9528 87.1118 22.2051C86.6398 22.4492 86.241 22.8114 85.9155 23.2915C85.59 23.7716 85.3418 24.3657 85.1709 25.0737C85 25.7817 84.9146 26.6037 84.9146 27.5396V28.6748C84.9146 29.6025 85.0041 30.4245 85.1831 31.1406C85.3621 31.8486 85.6266 32.4468 85.9766 32.9351C86.3346 33.4152 86.7741 33.7773 87.2949 34.0215C87.8158 34.2656 88.422 34.3877 89.1138 34.3877C89.6916 34.3877 90.1717 34.3389 90.5542 34.2412C90.9448 34.1436 91.2581 34.0256 91.4941 33.8872C91.7383 33.7407 91.9255 33.6024 92.0557 33.4722V30.3228H88.7109V27.7104H95.7178ZM110.598 34.1436V37H101.138V34.1436H110.598ZM102.334 19.2266V37H98.6719V19.2266H102.334ZM109.365 26.4653V29.2485H101.138V26.4653H109.365ZM110.586 19.2266V22.0952H101.138V19.2266H110.586ZM120.925 19.2266V37H117.275V19.2266H120.925ZM126.394 19.2266V22.0952H111.892V19.2266H126.394ZM143.301 32.3491C143.301 32.0317 143.252 31.7469 143.154 31.4946C143.065 31.2342 142.894 30.9982 142.642 30.7866C142.389 30.5669 142.035 30.3512 141.58 30.1396C141.124 29.9281 140.534 29.7083 139.81 29.4805C139.004 29.2201 138.239 28.9271 137.515 28.6016C136.799 28.276 136.164 27.8976 135.61 27.4663C135.065 27.0269 134.634 26.5182 134.316 25.9404C134.007 25.3626 133.853 24.6912 133.853 23.9263C133.853 23.1857 134.015 22.5143 134.341 21.9121C134.666 21.3018 135.122 20.7809 135.708 20.3496C136.294 19.9102 136.986 19.5724 137.783 19.3364C138.589 19.1004 139.472 18.9824 140.432 18.9824C141.742 18.9824 142.886 19.2184 143.862 19.6904C144.839 20.1624 145.596 20.8094 146.133 21.6313C146.678 22.4533 146.951 23.3932 146.951 24.4512H143.313C143.313 23.9303 143.203 23.4746 142.983 23.084C142.772 22.6852 142.446 22.3719 142.007 22.144C141.576 21.9162 141.03 21.8022 140.371 21.8022C139.736 21.8022 139.207 21.8999 138.784 22.0952C138.361 22.2824 138.044 22.5387 137.832 22.8643C137.62 23.1816 137.515 23.5397 137.515 23.9385C137.515 24.2396 137.588 24.5122 137.734 24.7563C137.889 25.0005 138.117 25.2284 138.418 25.4399C138.719 25.6515 139.089 25.8509 139.529 26.0381C139.968 26.2253 140.477 26.4084 141.055 26.5874C142.023 26.8804 142.874 27.21 143.606 27.5762C144.347 27.9424 144.965 28.3534 145.461 28.8091C145.958 29.2648 146.332 29.7816 146.584 30.3594C146.837 30.9372 146.963 31.5923 146.963 32.3247C146.963 33.0978 146.812 33.7896 146.511 34.3999C146.21 35.0103 145.775 35.527 145.205 35.9502C144.635 36.3734 143.956 36.6948 143.167 36.9146C142.377 37.1343 141.494 37.2441 140.518 37.2441C139.639 37.2441 138.772 37.1302 137.917 36.9023C137.063 36.6663 136.286 36.3123 135.586 35.8403C134.894 35.3683 134.341 34.7661 133.926 34.0337C133.511 33.3013 133.303 32.4346 133.303 31.4336H136.978C136.978 31.987 137.063 32.4549 137.234 32.8374C137.405 33.2199 137.645 33.5291 137.954 33.7651C138.271 34.0011 138.646 34.172 139.077 34.2778C139.517 34.3836 139.997 34.4365 140.518 34.4365C141.152 34.4365 141.673 34.347 142.08 34.168C142.495 33.9889 142.8 33.7407 142.996 33.4233C143.199 33.106 143.301 32.7479 143.301 32.3491ZM157.4 19.2266V37H153.75V19.2266H157.4ZM162.869 19.2266V22.0952H148.367V19.2266H162.869ZM170.864 22.2661L166.03 37H162.136L168.74 19.2266H171.218L170.864 22.2661ZM174.88 37L170.034 22.2661L169.644 19.2266H172.146L178.787 37H174.88ZM174.661 30.3838V33.2524H165.273V30.3838H174.661ZM180.435 19.2266H187.063C188.422 19.2266 189.59 19.43 190.566 19.8369C191.551 20.2438 192.308 20.846 192.837 21.6436C193.366 22.4411 193.63 23.4217 193.63 24.5854C193.63 25.5376 193.468 26.3555 193.142 27.0391C192.825 27.7145 192.373 28.2801 191.787 28.7358C191.209 29.1834 190.53 29.5415 189.749 29.8101L188.589 30.4204H182.827L182.803 27.564H187.087C187.73 27.564 188.263 27.45 188.687 27.2222C189.11 26.9943 189.427 26.6769 189.639 26.27C189.858 25.8631 189.968 25.3911 189.968 24.854C189.968 24.2843 189.862 23.792 189.651 23.377C189.439 22.9619 189.118 22.6445 188.687 22.4248C188.255 22.2051 187.714 22.0952 187.063 22.0952H184.097V37H180.435V19.2266ZM190.371 37L186.318 29.0776L190.188 29.0532L194.29 36.8291V37H190.371ZM203.665 19.2266V37H200.015V19.2266H203.665ZM209.133 19.2266V22.0952H194.631V19.2266H209.133ZM223.147 34.1436V37H213.687V34.1436H223.147ZM214.883 19.2266V37H211.221V19.2266H214.883ZM221.914 26.4653V29.2485H213.687V26.4653H221.914ZM223.135 19.2266V22.0952H213.687V19.2266H223.135ZM230.74 37H226.87L226.895 34.1436H230.74C231.7 34.1436 232.51 33.9279 233.169 33.4966C233.828 33.0571 234.325 32.4183 234.658 31.5801C235 30.7419 235.171 29.7287 235.171 28.5405V27.6738C235.171 26.7624 235.073 25.9608 234.878 25.269C234.691 24.5773 234.41 23.9954 234.036 23.5234C233.661 23.0514 233.201 22.6974 232.656 22.4614C232.111 22.2173 231.484 22.0952 230.776 22.0952H226.797V19.2266H230.776C231.965 19.2266 233.051 19.43 234.036 19.8369C235.028 20.2357 235.887 20.8094 236.611 21.5581C237.336 22.3068 237.893 23.202 238.284 24.2437C238.682 25.2772 238.882 26.4287 238.882 27.6982V28.5405C238.882 29.8019 238.682 30.9535 238.284 31.9951C237.893 33.0368 237.336 33.932 236.611 34.6807C235.895 35.4212 235.037 35.995 234.036 36.4019C233.043 36.8006 231.944 37 230.74 37ZM228.945 19.2266V37H225.283V19.2266H228.945Z" fill="#055686"/>
</svg>
