<svg width="416" height="144" viewBox="0 0 416 144" fill="none" xmlns="http://www.w3.org/2000/svg">
<path d="M13.9375 0.84375H18.625C24.8125 0.84375 28.9688 1.9375 31.0938 4.125L31.6562 5.90625V6.1875C31.6562 7.75 30.6875 8.625 28.75 8.8125C26.875 7.25 23.125 6.46875 17.5 6.46875H16.5625V6.84375C16.5625 18.4062 16.6875 34.4375 16.9375 54.9375C17.25 75.4375 18.2188 86.7812 19.8438 88.9688C19.2188 90.7188 18.1562 91.5938 16.6562 91.5938C14.0312 94.4062 12.4375 83.6562 11.875 59.3438C11.3125 35.0312 11.0312 17.5312 11.0312 6.84375V6.46875L2.6875 7.03125C1.125 6.34375 0.34375 5.375 0.34375 4.125C0.34375 1.9375 4.875 0.84375 13.9375 0.84375ZM47.5 57.6562C52.875 59.5938 55.7188 65.5312 56.0312 75.4688V76.0312C55.7812 84.3438 53.625 89.4375 49.5625 91.3125L46.9375 91.6875C40.25 90.0625 36.9062 85.0312 36.9062 76.5938V76.3125C36.9062 67.1875 39.8438 61.0938 45.7188 58.0312L47.5 57.6562ZM42.4375 75.4688V77.5312C43.125 83.4062 44.9375 86.3438 47.875 86.3438C49.5625 84.4688 50.4062 80.8438 50.4062 75.4688V74.9062C50.0938 68.2188 49.0312 64.5625 47.2188 63.9375C44.0312 65.375 42.4375 69.2188 42.4375 75.4688ZM88.75 7.59375C90.0625 7.59375 91.25 9.46875 92.3125 13.2188H92.875C95 11.5938 97.9688 10.625 101.781 10.3125C112.844 10.3125 120.25 20.3125 124 40.3125L125.406 55.9688C125.406 73.8438 119.031 85.4688 106.281 90.8438L101.406 91.4062H101.219C99.8438 91.4062 97.7812 90.9375 95.0312 90V90.8438L95.3125 92.625C95.3125 93.5 94.4375 94.375 92.6875 95.25C90.3125 95.25 89.125 92.6875 89.125 87.5625C87.5 65.625 86.6875 52.1562 86.6875 47.1562L87.625 19.5938C87.625 16.7812 86.9375 13.6875 85.5625 10.3125C85.5625 8.875 86.625 7.96875 88.75 7.59375ZM92.3125 46.7812L93.7188 77.8125C95.2812 83.1875 97.5625 85.875 100.562 85.875H103C106.375 85.875 110.094 83.3125 114.156 78.1875C117.719 72.5 119.5 65.7812 119.5 58.0312V53.0625C119.5 40.5625 116.938 30.0312 111.812 21.4688C108.812 17.9062 106.062 16.125 103.562 16.125H100C96 16.125 93.7188 18.5938 93.1562 23.5312L92.3125 46.7812ZM141.906 57.6562C147.281 59.5938 150.125 65.5312 150.438 75.4688V76.0312C150.188 84.3438 148.031 89.4375 143.969 91.3125L141.344 91.6875C134.656 90.0625 131.312 85.0312 131.312 76.5938V76.3125C131.312 67.1875 134.25 61.0938 140.125 58.0312L141.906 57.6562ZM136.844 75.4688V77.5312C137.531 83.4062 139.344 86.3438 142.281 86.3438C143.969 84.4688 144.812 80.8438 144.812 75.4688V74.9062C144.5 68.2188 143.438 64.5625 141.625 63.9375C138.438 65.375 136.844 69.2188 136.844 75.4688ZM182.125 1.59375C184.062 1.59375 185.031 4.53125 185.031 10.4062C186.594 59.2812 188.094 83.7188 189.531 83.7188L192.156 83.0625L202.75 83.3438L206.312 82.5C207.25 82.5 208.156 83.4062 209.031 85.2188C208.406 87.7188 205.844 88.9688 201.344 88.9688L191.5 88.7812C190.75 88.7812 189.375 89.4375 187.375 90.75H185.969C184.031 90.75 182.75 83.4688 182.125 68.9062C181.375 59.5938 180.375 37.8125 179.125 3.5625C179.625 2.25 180.625 1.59375 182.125 1.59375ZM219.156 42.375C220.781 42.375 221.781 43.4375 222.156 45.5625C222.156 46.5625 221.469 47.5312 220.094 48.4688H219.156C217.406 48.4688 216.531 47.4062 216.531 45.2812C217.031 43.3438 217.906 42.375 219.156 42.375ZM219.812 55.0312C221.938 55.3438 222.531 58.5 221.594 64.5C220.844 69.4375 220.719 77.7188 221.219 89.3438C220.281 91.1562 219.062 91.9375 217.562 91.6875C215.812 91.4375 215.094 88.3438 215.406 82.4062C215.281 72.0312 215.812 63.3438 217 56.3438C217.125 55.4062 218.062 54.9688 219.812 55.0312ZM240.719 54.375C243.969 54.375 245.938 55.75 246.625 58.5C246.625 59.8125 245.75 60.625 244 60.9375H243.156C242.344 60.375 241.625 60.0938 241 60.0938H240.156C236.031 61.8438 233.969 64.4688 233.969 67.9688V68.8125C234.281 70.875 235.25 71.9062 236.875 71.9062H237.719L244.188 70.6875C247.375 71.0625 248.969 72.625 248.969 75.375C248.969 79.4375 246.5 83.7812 241.562 88.4062C239.25 90.1562 236.906 91.0312 234.531 91.0312C230.219 90.0938 228.062 88.3125 228.062 85.6875C228.688 84.125 229.75 83.3438 231.25 83.3438L234.156 85.4062H235.656C240.219 83.6562 242.5 80.8125 242.5 76.875L242.125 76.5C240.562 77.0625 238.812 77.3438 236.875 77.3438C232.25 77.3438 229.406 74.3438 228.344 68.3438C228.344 62.9062 231.375 58.4688 237.438 55.0312L240.719 54.375ZM261.719 8.25C263.719 8.25 264.594 14.2812 264.344 26.3438C264.156 38.3438 264.062 46.8438 264.062 51.8438H264.25L269.875 51C271.688 51.25 272.594 52.1562 272.594 53.7188C272.594 55.8438 270.625 56.9062 266.688 56.9062L264.25 57.75L265.094 89.1562C264.844 91.2812 263.875 92.3438 262.188 92.3438C260.188 92.3438 259.188 90.875 259.188 87.9375V80.5312L259 59.625L258.625 58.6875L254.5 58.9688C252.75 58.5938 251.875 57.625 251.875 56.0625C251.875 54.125 254.031 53.1562 258.344 53.1562V52.7812C258.344 44.7812 258.469 30.8125 258.719 10.875C258.719 9.3125 259.719 8.4375 261.719 8.25ZM328.094 2.8125C329.031 2.8125 329.938 3.71875 330.812 5.53125L330.531 6.9375C335.969 42.875 339.781 70.25 341.969 89.0625C341.344 90.8125 340.375 91.6875 339.062 91.6875C336.875 91.6875 335.562 87 335.125 77.625L334.094 70.2188L328.938 70.5C325.688 70.5 320.781 70.0938 314.219 69.2812C309.594 85.0938 306.438 93 304.75 93H304.562C302.562 92.4375 301.562 91.4375 301.562 90C306.625 77.625 312.125 56.4375 318.062 26.4375C320.625 17.1875 322.969 9.71875 325.094 4.03125C325.969 3.21875 326.969 2.8125 328.094 2.8125ZM315.719 63.6562C319.156 64.4688 322.781 64.875 326.594 64.875H331.656C332.344 64.875 332.938 64.5938 333.438 64.0312L326.594 18.4688H326.406C325.156 20.4062 323.344 27.2188 320.969 38.9062L315.719 63.6562ZM361.562 55.3125C367.875 55.3125 373.25 60.3438 377.688 70.4062L379 76.5938C379 84.1562 374.062 88.5938 364.188 89.9062H363.531C361.281 89.9062 359.25 89.3125 357.438 88.125H356.5C357.438 114 357.906 131.375 357.906 140.25C357.344 142.438 356.344 143.531 354.906 143.531C352.906 143.531 351.906 141.938 351.906 138.75V137.531C351.906 127.906 351.562 111.125 350.875 87.1875C350.062 76.5625 349.656 68.4062 349.656 62.7188V60.75C349.656 57.5625 350.625 55.9688 352.562 55.9688H353.875C355 56.6562 355.562 57.5312 355.562 58.5938C357.562 56.6562 359.031 55.6875 359.969 55.6875L361.562 55.3125ZM358 71.0625C356.875 79.875 358.531 84.2812 362.969 84.2812H364.469C369.531 84.2812 372.5 81.9062 373.375 77.1562V76.3125C373.375 72.125 371.188 67.8125 366.812 63.375C365 61.75 363.344 60.9375 361.844 60.9375C359.781 60.8125 358.5 64.1875 358 71.0625ZM398.219 55.3125C404.531 55.3125 409.906 60.3438 414.344 70.4062L415.656 76.5938C415.656 84.1562 410.719 88.5938 400.844 89.9062H400.188C397.938 89.9062 395.906 89.3125 394.094 88.125H393.156C394.094 114 394.562 131.375 394.562 140.25C394 142.438 393 143.531 391.562 143.531C389.562 143.531 388.562 141.938 388.562 138.75V137.531C388.562 127.906 388.219 111.125 387.531 87.1875C386.719 76.5625 386.312 68.4062 386.312 62.7188V60.75C386.312 57.5625 387.281 55.9688 389.219 55.9688H390.531C391.656 56.6562 392.219 57.5312 392.219 58.5938C394.219 56.6562 395.688 55.6875 396.625 55.6875L398.219 55.3125ZM394.656 71.0625C393.531 79.875 395.188 84.2812 399.625 84.2812H401.125C406.188 84.2812 409.156 81.9062 410.031 77.1562V76.3125C410.031 72.125 407.844 67.8125 403.469 63.375C401.656 61.75 400 60.9375 398.5 60.9375C396.438 60.8125 395.156 64.1875 394.656 71.0625Z" fill="#FF8040"/>
</svg>
